<svg xmlns="http://www.w3.org/2000/svg" viewBox="0 0 408.16 94.77"><defs><style>.cls-1,.cls-3{fill:#869157;}.cls-1{fill-rule:evenodd;}.cls-2{fill:#414042;}.cls-4{fill:#fff;}</style></defs><title>Asset 3</title><g id="Layer_2" data-name="Layer 2"><g id="Layer_1-2" data-name="Layer 1"><path class="cls-1" d="M268.48,94.77c-4.39-8.26-16.36-18.25-19.93-27.91-5.76-15.56,6.68-31.58,23.35-29,9.32,1.42,21.1,13.29,16.51,27.34C284.82,76.15,273.16,84.13,268.48,94.77Zm0-26.29c13.5,0,13.34-19.77-.76-19.77C255,48.71,255,68.48,268.51,68.48Z"/><path class="cls-2" d="M0,38.08H13.84l6,23.5,7.58-23.5H40.33l7.89,23.56,6-23.56H68L54.24,75.41H41.51L33.94,53,26.63,75.41H13.84Z"/><path class="cls-2" d="M69.15,56.85a18.65,18.65,0,0,1,5.77-14.08q5.76-5.54,15.57-5.54,11.22,0,17,6.51a18.83,18.83,0,0,1,4.6,12.9,18.71,18.71,0,0,1-5.71,14.11q-5.72,5.5-15.8,5.51-9,0-14.56-4.57A18.38,18.38,0,0,1,69.15,56.85Zm14.35,0q0,5,2,7.39a6.62,6.62,0,0,0,10.16,0q2-2.36,2-7.56c0-3.23-.66-5.64-2-7.22a6.25,6.25,0,0,0-5-2.37,6.47,6.47,0,0,0-5.16,2.4Q83.5,51.9,83.5,56.81Z"/><path class="cls-2" d="M119.07,38.08h13.4v6.11a14.5,14.5,0,0,1,4-5.46,8.38,8.38,0,0,1,5.08-1.5,15.1,15.1,0,0,1,6.92,2L144,49.4a11.18,11.18,0,0,0-4-1.06,5,5,0,0,0-4.36,2.32q-2.22,3.27-2.22,12.24V75.41H119.07Z"/><path class="cls-2" d="M153.28,23.87h14.63V50.48l10.68-12.4h17.62l-13.4,13.08L197,75.41H180.86l-7.56-15-5.39,5.26v9.7H153.28Z"/><path class="cls-3" d="M204.19,65.09h11V75.41h-11Z"/><path class="cls-2" d="M225.77,23.87h14.35V75.41H225.77Z"/><path class="cls-2" d="M325.12,60.79l13.61,1.54A19.11,19.11,0,0,1,335,69.7a17.2,17.2,0,0,1-6.56,4.83,25.69,25.69,0,0,1-10.14,1.73,37.33,37.33,0,0,1-9.9-1.11,17.39,17.39,0,0,1-6.8-3.58,17.91,17.91,0,0,1-4.46-5.82,20.4,20.4,0,0,1-1.62-8.85,20.78,20.78,0,0,1,2-9.59,17.47,17.47,0,0,1,3.93-5A18.48,18.48,0,0,1,306.6,39a28.6,28.6,0,0,1,10.72-1.72q9.14,0,13.94,3.27A17.25,17.25,0,0,1,338,50.06l-13.46,1.8a6.21,6.21,0,0,0-2.31-3.61A7.51,7.51,0,0,0,317.74,47,7.23,7.23,0,0,0,312,49.59q-2.19,2.53-2.19,7.7c0,3.06.72,5.39,2.18,7a7.18,7.18,0,0,0,5.55,2.39,7.65,7.65,0,0,0,4.73-1.44A8.55,8.55,0,0,0,325.12,60.79Z"/><path class="cls-2" d="M358.35,50.17l-13.68-1.44a15.46,15.46,0,0,1,2.23-5.64,12.33,12.33,0,0,1,4.21-3.57,17.45,17.45,0,0,1,5.41-1.69,43.5,43.5,0,0,1,7.45-.6,59.32,59.32,0,0,1,10.34.72,13.29,13.29,0,0,1,6.5,3,10.59,10.59,0,0,1,2.89,4.48A16.3,16.3,0,0,1,384.75,51V67.47a20.2,20.2,0,0,0,.33,4.13,19,19,0,0,0,1.46,3.81H373.11a12.91,12.91,0,0,1-1.05-2.2,14.9,14.9,0,0,1-.49-2.37A18.46,18.46,0,0,1,366,74.71a23.32,23.32,0,0,1-8.83,1.55q-6.67,0-10.14-3.1a9.81,9.81,0,0,1-3.46-7.63,10,10,0,0,1,2.49-7q2.5-2.74,9.21-4.08,8.06-1.62,10.45-2.27a48.57,48.57,0,0,0,5.06-1.7,5.09,5.09,0,0,0-1.09-3.7c-.73-.7-2-1-3.83-1a9.91,9.91,0,0,0-5.28,1.13A6.12,6.12,0,0,0,358.35,50.17Zm12.41,7.52q-3,1.06-6.15,1.87-4.37,1.15-5.52,2.28a3.66,3.66,0,0,0,0,5.4,5,5,0,0,0,3.46,1.07A9,9,0,0,0,367,67.15a7.07,7.07,0,0,0,2.92-2.83,9.52,9.52,0,0,0,.86-4.34Z"/><path class="cls-2" d="M393.82,23.87h14.34V75.41H393.82Z"/><polygon class="cls-3" points="80.72 26.69 75.26 29.96 75.26 13.59 80.72 13.59 80.72 26.69"/><polygon class="cls-3" points="93.59 24.83 88.09 24.32 88.09 0 93.63 0 93.59 24.83"/><polygon class="cls-3" points="87.12 7.57 84.36 3.16 81.61 7.57 81.57 7.57 81.57 26.83 87.16 24.98 87.16 7.57 87.12 7.57"/><polygon class="cls-3" points="100.14 10.92 100.12 10.89 100.12 10.85 100.1 10.85 97.35 6.21 94.6 10.85 94.56 10.85 94.56 10.91 94.55 10.92 94.56 10.92 94.56 23.95 100.12 27.09 100.12 10.92 100.14 10.92"/><polygon class="cls-3" points="100.83 27.23 106.3 30.49 106.3 14.13 100.83 14.13 100.83 27.23"/><path class="cls-3" d="M72.33,32.16s20.53-14.51,38.41,1.76c0,0,.05,0,0,0C101.31,21.39,84.75,18.08,72.33,32.16Z"/><path class="cls-3" d="M281,58.73a12.67,12.67,0,1,1-12.67-12.67A12.67,12.67,0,0,1,281,58.73Z"/><path class="cls-4" d="M276,56.82a7.75,7.75,0,1,1-7.75-7.75A7.75,7.75,0,0,1,276,56.82Z"/></g></g></svg>